<svg width="34" height="47" viewBox="0 0 34 47" fill="none" xmlns="http://www.w3.org/2000/svg">
<path d="M33.8754 40.3327L31.4501 13.6454C31.3817 12.9102 30.7661 12.3487 30.0279 12.3487H25.7529V9.49872C25.7529 7.20733 24.8666 5.0556 23.2564 3.44536C21.6461 1.83512 19.4944 0.948771 17.203 0.948771C12.4891 0.948771 8.65305 4.78485 8.65305 9.49872V12.3487H4.37807C3.63993 12.3487 3.02433 12.9102 2.95878 13.6454L0.533444 40.3327C0.388095 41.923 0.923892 43.5133 2.00119 44.6932C3.07848 45.8731 4.61177 46.5485 6.21061 46.5485H28.1982C29.7971 46.5485 31.3304 45.8731 32.4077 44.6932C33.485 43.5133 34.0179 41.923 33.8754 40.3327ZM11.503 9.49872C11.503 6.35519 14.0595 3.79875 17.203 3.79875C18.7334 3.79875 20.167 4.3887 21.2414 5.46029C22.3159 6.53189 22.903 7.96828 22.903 9.49872V12.3487H11.503V9.49872ZM30.3015 42.7723C29.7543 43.3679 29.0076 43.6985 28.1954 43.6985H6.21061C5.40122 43.6985 4.65167 43.3679 4.10732 42.7694C3.56013 42.1709 3.30078 41.3986 3.37488 40.5892L5.68051 15.1987H8.65305V19.4737C8.65305 20.2603 9.29144 20.8987 10.078 20.8987C10.8646 20.8987 11.503 20.2603 11.503 19.4737V15.1987H22.903V19.4737C22.903 20.2603 23.5414 20.8987 24.328 20.8987C25.1146 20.8987 25.7529 20.2603 25.7529 19.4737V15.1987H28.7255L31.034 40.592C31.1081 41.3986 30.8487 42.1738 30.3015 42.7723Z" fill="#202026"/>
</svg>
