<svg width="21" height="22" viewBox="0 0 21 22" fill="none" xmlns="http://www.w3.org/2000/svg">
<path d="M18.5391 3.28113H2.46094C1.10398 3.28113 0 4.3851 0 5.74207V16.2421C0 17.599 1.10398 18.703 2.46094 18.703H18.5391C19.896 18.703 21 17.599 21 16.2421V5.74207C21 4.3851 19.896 3.28113 18.5391 3.28113ZM19.3594 16.2421C19.3594 16.6944 18.9914 17.0624 18.5391 17.0624H2.46094C2.00862 17.0624 1.64062 16.6944 1.64062 16.2421V5.74207C1.64062 5.28975 2.00862 4.92175 2.46094 4.92175H18.5391C18.9914 4.92175 19.3594 5.28975 19.3594 5.74207V16.2421Z" fill="#403737"/>
<path d="M19.22 4.30396L10.5 10.79L1.77987 4.30396L0.800659 5.62035L10.5 12.8347L20.1992 5.62035L19.22 4.30396Z" fill="#403737"/>
</svg>
