<svg width="48" height="47" viewBox="0 0 48 47" fill="none" xmlns="http://www.w3.org/2000/svg">
<g clip-path="url(#clip0)">
<path d="M42.0441 12.2679H39.2846C38.7548 5.42813 32.8991 0.0213623 25.7772 0.0213623H22.6653C15.5435 0.0213623 9.68767 5.42813 9.15792 12.2679H6.39841C3.62822 12.2679 1.37457 14.4737 1.37457 17.185V25.7968C1.37457 28.508 3.62822 30.7137 6.39841 30.7137H10.1525C10.7235 30.7137 11.1863 30.2608 11.1863 29.7019V13.2797C11.1863 7.08487 16.3358 2.04494 22.6653 2.04494H25.7772C32.1067 2.04494 37.2562 7.08487 37.2562 13.2797V29.6565C37.2562 34.4463 34.1656 38.6685 29.627 40.2448C28.9738 38.7981 27.4945 37.7855 25.7773 37.7855C23.4573 37.7855 21.5699 39.6328 21.5699 41.9034C21.5699 44.174 23.4573 46.0213 25.7773 46.0213C27.9723 46.0213 29.779 44.3674 29.9675 42.2662C35.1737 40.6132 38.8475 36.043 39.2799 30.7136H42.0444C44.8146 30.7136 47.0682 28.5078 47.0682 25.7966V17.1849C47.0681 14.4737 44.8144 12.2679 42.0441 12.2679ZM9.11875 28.6901H6.39841C4.76836 28.6901 3.44214 27.3921 3.44214 25.7968V17.185C3.44214 15.5895 4.76836 14.2915 6.39841 14.2915H9.11875V28.6901ZM25.7772 43.9978C24.5973 43.9978 23.6373 43.0583 23.6373 41.9035C23.6373 40.7487 24.5972 39.8092 25.7772 39.8092C26.9572 39.8092 27.917 40.7487 27.917 41.9035C27.917 43.0583 26.9572 43.9978 25.7772 43.9978ZM45.0005 25.7968C45.0005 27.3921 43.6743 28.6901 42.0443 28.6901H39.3238V14.2915H42.0443C43.6743 14.2915 45.0005 15.5895 45.0005 17.185V25.7968Z" fill="#4D4D4D"/>
</g>
<defs>
<clipPath id="clip0">
<rect width="47" height="46" fill="white" transform="translate(0.721313 0.0213623)"/>
</clipPath>
</defs>
</svg>
