<svg width="23" height="23" viewBox="0 0 23 23" fill="none" xmlns="http://www.w3.org/2000/svg">
<g clip-path="url(#clip0)">
<path d="M22.5217 6.86235C22.4702 5.6934 22.2812 4.88976 22.0104 4.1934C21.731 3.45423 21.3012 2.79244 20.7382 2.2423C20.188 1.6836 19.5219 1.24947 18.7913 0.974478C18.0909 0.703689 17.2914 0.514657 16.1225 0.463118C14.9448 0.407214 14.571 0.394287 11.5841 0.394287C8.59714 0.394287 8.22327 0.407214 7.04997 0.458753C5.88102 0.510292 5.07738 0.699492 4.38119 0.970114C3.64185 1.24947 2.98007 1.67924 2.42993 2.2423C1.87122 2.79244 1.43725 3.45859 1.1621 4.1892C0.891311 4.88976 0.702279 5.68904 0.65074 6.85798C0.594836 8.03566 0.581909 8.40952 0.581909 11.3964C0.581909 14.3833 0.594836 14.7572 0.646375 15.9305C0.697914 17.0995 0.887114 17.9031 1.1579 18.5995C1.43725 19.3386 1.87122 20.0004 2.42993 20.5506C2.98007 21.1093 3.64621 21.5434 4.37682 21.8184C5.07738 22.0892 5.87666 22.2782 7.04577 22.3298C8.21891 22.3815 8.59295 22.3942 11.5799 22.3942C14.5668 22.3942 14.9406 22.3815 16.1139 22.3298C17.2829 22.2782 18.0865 22.0892 18.7827 21.8184C20.2612 21.2468 21.4302 20.0778 22.0018 18.5995C22.2724 17.8989 22.4616 17.0995 22.5132 15.9305C22.5647 14.7572 22.5776 14.3833 22.5776 11.3964C22.5776 8.40952 22.5733 8.03566 22.5217 6.86235ZM20.5406 15.8446C20.4932 16.919 20.3128 17.4992 20.1624 17.886C19.7927 18.8444 19.032 19.6051 18.0736 19.9747C17.6868 20.1252 17.1024 20.3056 16.0322 20.3528C14.8718 20.4045 14.5238 20.4173 11.5884 20.4173C8.65305 20.4173 8.30067 20.4045 7.14448 20.3528C6.07005 20.3056 5.48986 20.1252 5.10307 19.9747C4.62612 19.7985 4.19199 19.5191 3.83961 19.1538C3.4743 18.7971 3.19495 18.3673 3.01868 17.8903C2.86826 17.5036 2.68779 16.919 2.64061 15.8489C2.58891 14.6886 2.57615 14.3404 2.57615 11.405C2.57615 8.46962 2.58891 8.11725 2.64061 6.96123C2.68779 5.8868 2.86826 5.30661 3.01868 4.91981C3.19495 4.4427 3.4743 4.00873 3.84397 3.65618C4.20055 3.29088 4.63032 3.01153 5.10743 2.83542C5.49423 2.685 6.07878 2.50453 7.14885 2.45719C8.30923 2.40565 8.65741 2.39272 11.5926 2.39272C14.5323 2.39272 14.8804 2.40565 16.0365 2.45719C17.111 2.50453 17.6912 2.685 18.078 2.83542C18.5549 3.01153 18.989 3.29088 19.3414 3.65618C19.7067 4.01293 19.9861 4.4427 20.1624 4.91981C20.3128 5.30661 20.4932 5.891 20.5406 6.96123C20.5921 8.12161 20.6051 8.46962 20.6051 11.405C20.6051 14.3404 20.5921 14.6842 20.5406 15.8446Z" fill="black"/>
<path d="M11.5841 5.745C8.46407 5.745 5.93262 8.27628 5.93262 11.3965C5.93262 14.5167 8.46407 17.048 11.5841 17.048C14.7043 17.048 17.2356 14.5167 17.2356 11.3965C17.2356 8.27628 14.7043 5.745 11.5841 5.745ZM11.5841 15.0625C9.55999 15.0625 7.91813 13.4208 7.91813 11.3965C7.91813 9.3722 9.55999 7.73051 11.5841 7.73051C13.6084 7.73051 15.2501 9.3722 15.2501 11.3965C15.2501 13.4208 13.6084 15.0625 11.5841 15.0625Z" fill="black"/>
<path d="M18.7786 5.52151C18.7786 6.25011 18.1878 6.84088 17.459 6.84088C16.7304 6.84088 16.1396 6.25011 16.1396 5.52151C16.1396 4.79275 16.7304 4.20215 17.459 4.20215C18.1878 4.20215 18.7786 4.79275 18.7786 5.52151Z" fill="black"/>
</g>
<defs>
<clipPath id="clip0">
<rect width="22" height="22" fill="white" transform="translate(0.543335 0.394287)"/>
</clipPath>
</defs>
</svg>
