<svg width="22" height="23" viewBox="0 0 22 23" fill="none" xmlns="http://www.w3.org/2000/svg">
<g clip-path="url(#clip0)">
<path d="M21.9784 6.77519C21.9269 5.60624 21.7378 4.8026 21.467 4.10624C21.1877 3.36707 20.7579 2.70529 20.1948 2.15515C19.6447 1.59644 18.9786 1.16231 18.2479 0.88732C17.5476 0.616531 16.7481 0.427498 15.5792 0.375959C14.4015 0.320056 14.0276 0.307129 11.0407 0.307129C8.05381 0.307129 7.67994 0.320056 6.50663 0.371595C5.33769 0.423134 4.53405 0.612334 3.83785 0.882955C3.09851 1.16231 2.43673 1.59208 1.88659 2.15515C1.32789 2.70529 0.89392 3.37143 0.618765 4.10204C0.347976 4.8026 0.158944 5.60188 0.107405 6.77082C0.0515009 7.9485 0.0385742 8.32237 0.0385742 11.3093C0.0385742 14.2962 0.0515009 14.6701 0.10304 15.8434C0.154579 17.0123 0.343779 17.8159 0.614568 18.5123C0.89392 19.2515 1.32789 19.9133 1.88659 20.4634C2.43673 21.0221 3.10288 21.4562 3.83349 21.7312C4.53405 22.002 5.33332 22.1911 6.50243 22.2426C7.67558 22.2943 8.04961 22.3071 11.0365 22.3071C14.0234 22.3071 14.3973 22.2943 15.5706 22.2426C16.7395 22.1911 17.5432 22.002 18.2394 21.7312C19.7179 21.1596 20.8868 19.9907 21.4585 18.5123C21.7291 17.8118 21.9183 17.0123 21.9698 15.8434C22.0214 14.6701 22.0343 14.2962 22.0343 11.3093C22.0343 8.32237 22.0299 7.9485 21.9784 6.77519ZM19.9972 15.7574C19.9499 16.8318 19.7694 17.412 19.619 17.7988C19.2493 18.7572 18.4887 19.5179 17.5303 19.8876C17.1435 20.038 16.5591 20.2185 15.4888 20.2656C14.3285 20.3174 13.9805 20.3301 11.0451 20.3301C8.10971 20.3301 7.75733 20.3174 6.60115 20.2656C5.52672 20.2185 4.94653 20.038 4.55973 19.8876C4.08279 19.7113 3.64865 19.432 3.29627 19.0667C2.93097 18.7099 2.65162 18.2801 2.47534 17.8032C2.32492 17.4164 2.14445 16.8318 2.09728 15.7618C2.04557 14.6014 2.03281 14.2532 2.03281 11.3178C2.03281 8.38247 2.04557 8.03009 2.09728 6.87407C2.14445 5.79964 2.32492 5.21945 2.47534 4.83266C2.65162 4.35554 2.93097 3.92157 3.30064 3.56903C3.65721 3.20372 4.08699 2.92437 4.5641 2.74826C4.95089 2.59784 5.53545 2.41737 6.60551 2.37003C7.76589 2.31849 8.11408 2.30557 11.0493 2.30557C13.989 2.30557 14.337 2.31849 15.4932 2.37003C16.5676 2.41737 17.1478 2.59784 17.5346 2.74826C18.0116 2.92437 18.4457 3.20372 18.7981 3.56903C19.1634 3.92577 19.4427 4.35554 19.619 4.83266C19.7694 5.21945 19.9499 5.80384 19.9972 6.87407C20.0488 8.03445 20.0617 8.38247 20.0617 11.3178C20.0617 14.2532 20.0488 14.597 19.9972 15.7574Z" fill="black"/>
<path d="M11.0409 5.65771C7.92086 5.65771 5.3894 8.189 5.3894 11.3092C5.3894 14.4294 7.92086 16.9607 11.0409 16.9607C14.1611 16.9607 16.6924 14.4294 16.6924 11.3092C16.6924 8.189 14.1611 5.65771 11.0409 5.65771ZM11.0409 14.9752C9.01678 14.9752 7.37491 13.3335 7.37491 11.3092C7.37491 9.28492 9.01678 7.64322 11.0409 7.64322C13.0652 7.64322 14.7069 9.28492 14.7069 11.3092C14.7069 13.3335 13.0652 14.9752 11.0409 14.9752Z" fill="black"/>
<path d="M18.2351 5.43436C18.2351 6.16295 17.6443 6.75372 16.9156 6.75372C16.187 6.75372 15.5962 6.16295 15.5962 5.43436C15.5962 4.70559 16.187 4.11499 16.9156 4.11499C17.6443 4.11499 18.2351 4.70559 18.2351 5.43436Z" fill="black"/>
</g>
<defs>
<clipPath id="clip0">
<rect width="22" height="22" fill="white" transform="translate(0 0.307129)"/>
</clipPath>
</defs>
</svg>
