<svg width="25" height="34" viewBox="0 0 25 34" fill="none" xmlns="http://www.w3.org/2000/svg">
<path d="M10.3602 19.6339C11.7255 18.0286 15.0883 14.4165 19.7539 11.5565C19.8185 11.5169 20.5122 12.5735 20.5122 12.5735C20.5549 12.6726 20.5278 12.7873 20.4506 12.8603C16.1136 16.8531 12.7175 22.3583 11.689 24.9878C11.6577 25.0713 11.5868 25.1276 11.5034 25.1464C11.4867 25.1506 11.4669 25.1506 11.4543 25.1506C11.3845 25.1506 11.3198 25.1266 11.2728 25.0734L4.88835 18.5825C4.83724 18.5293 6.76166 16.8208 6.8545 16.8875L10.3602 19.6339Z" fill="#4D4D4D"/>
<path fill-rule="evenodd" clip-rule="evenodd" d="M10.1022 32.5606C11.2254 33.2168 12.0616 33.6275 12.4066 33.7905C12.52 33.8441 12.5804 33.8709 12.5804 33.8709L12.7098 33.7905L12.8393 33.8709C12.8393 33.8709 12.8997 33.8441 13.0131 33.7905C13.3581 33.6275 14.1943 33.2168 15.3175 32.5606C16.9539 31.6044 19.1997 30.1267 21.4233 28.1334C25.6749 24.3223 24.9313 20.3773 24.9313 20.3773V5.34873C24.9313 5.34873 24.8644 4.79537 24.5711 4.82992C24.2777 4.86446 22.953 4.81614 21.8779 4.7362C20.8224 4.65772 19.9629 4.51619 19.1766 4.35728C18.6494 4.25076 16.4556 3.68551 15.3175 3.06478C15.1688 2.9837 15.0381 2.90166 14.9316 2.81958C13.9689 2.07815 13.3901 1.62806 13.1612 1.14665C13.0417 0.895149 12.8876 0.82814 12.7951 0.811903C12.7461 0.80329 12.7144 0.808961 12.7144 0.808961L12.7098 0.811903L12.7053 0.808961C12.7053 0.808961 12.6736 0.80329 12.6246 0.811903C12.5321 0.82814 12.378 0.895149 12.2585 1.14665C12.0296 1.62806 11.4508 2.07815 10.4881 2.81958C10.3816 2.90166 10.2509 2.9837 10.1022 3.06478C8.96412 3.68551 6.77029 4.25076 6.24314 4.35728C5.45678 4.51619 4.59734 4.65772 3.54181 4.7362C2.46674 4.81614 1.14198 4.86446 0.848626 4.82992C0.555268 4.79537 0.488419 5.34873 0.488419 5.34873V20.3773C0.488419 20.3773 -0.255203 24.3223 3.9964 28.1334C6.22004 30.1267 8.46577 31.6044 10.1022 32.5606ZM3.04526 20.936C3.04451 20.8909 3.04398 20.8593 3.0462 20.8379L3.09604 7.37921C3.31201 7.36637 3.52759 7.35208 3.73516 7.33665C4.92625 7.24809 5.89694 7.08757 6.75963 6.91324C7.16954 6.83041 8.09557 6.59666 9.04238 6.29183C9.37572 6.18451 9.73119 6.06217 10.082 5.92729L10.0882 5.92397C10.2368 5.84288 10.3675 5.76085 10.474 5.67877L10.6916 5.51148C11.4988 4.89117 11.8581 4.61509 12.1371 4.18593C12.2567 3.93442 12.4142 3.67109 12.6105 3.67109C12.6596 3.66248 12.6935 3.62551 12.6935 3.62551C12.6935 3.62551 12.7312 3.67109 12.781 3.67109C12.9561 3.67109 13.1054 3.97517 13.225 4.22667C13.4495 4.58103 13.752 4.80598 14.3028 5.21545C14.4801 5.34727 14.6831 5.49822 14.9175 5.67877C15.0241 5.76085 15.1547 5.84288 15.3034 5.92397L15.3175 5.93161V5.91952C15.6749 6.05747 16.0376 6.18245 16.3773 6.29183C17.3241 6.59666 18.2502 6.83041 18.6601 6.91324C19.5228 7.08757 20.4934 7.24809 21.6845 7.33665C21.8921 7.35208 22.1077 7.36637 22.3237 7.37921L22.3735 20.8248C22.3757 20.8464 22.3752 20.8824 22.3744 20.9318C22.3738 20.9708 22.3731 21.0182 22.3735 21.0732C22.3754 21.3231 22.3525 21.7247 22.2339 22.2266C22.0039 23.2 21.3904 24.661 19.6828 26.1917C18.1912 27.5288 16.6816 28.6208 15.38 29.4616L15.3763 29.4676L12.734 31.0191L10.1081 29.5042L10.1022 29.4955V29.502C8.78662 28.6559 7.25249 27.5502 5.73694 26.1917C4.02934 24.661 3.41577 23.2 3.18582 22.2266C3.06724 21.7247 3.04429 21.3231 3.0462 21.0732C3.04663 21.0175 3.04587 20.9723 3.04526 20.936Z" fill="#4D4D4D"/>
</svg>
