<svg width="26" height="26" viewBox="0 0 26 26" fill="none" xmlns="http://www.w3.org/2000/svg">
<path d="M25.1484 24.2468L18.6324 17.8344C20.3387 15.9804 21.3871 13.5284 21.3871 10.8302C21.3863 5.05836 16.6326 0.379997 10.7681 0.379997C4.90363 0.379997 0.149902 5.05836 0.149902 10.8302C0.149902 16.6021 4.90363 21.2805 10.7681 21.2805C13.302 21.2805 15.626 20.404 17.4514 18.9468L23.9927 25.3845C24.3115 25.6985 24.8289 25.6985 25.1476 25.3845C25.4671 25.0705 25.4671 24.5609 25.1484 24.2468ZM10.7681 19.6726C5.80612 19.6726 1.78366 15.7138 1.78366 10.8302C1.78366 5.94669 5.80612 1.98783 10.7681 1.98783C15.7301 1.98783 19.7525 5.94669 19.7525 10.8302C19.7525 15.7138 15.7301 19.6726 10.7681 19.6726Z" fill="white"/>
</svg>
