<svg width="44" height="30" viewBox="0 0 44 30" fill="none" xmlns="http://www.w3.org/2000/svg">
<path fill-rule="evenodd" clip-rule="evenodd" d="M0.738647 0.70105H28.3319V4.65059C29.7279 4.5957 31.7336 4.5643 33.2078 4.73809L33.2789 4.76336C34.0267 5.02919 34.4864 5.19259 35.1396 5.67721C35.5201 5.95946 35.7128 6.16295 36.025 6.49281L36.0759 6.54648C36.8241 7.33608 37.0413 8.24649 37.2534 9.1356C37.4914 10.1332 37.723 11.104 38.6911 11.8472C39.3846 12.3797 39.9743 12.571 40.6631 12.7944C40.9618 12.8914 41.2793 12.9943 41.6319 13.1338C41.7293 13.1724 41.8302 13.2062 41.9315 13.2401C42.1522 13.3141 42.3747 13.3886 42.5658 13.5137C42.8309 13.6872 43.0042 14.0113 43.0042 14.0113V24.5757L39.9398 24.5757C39.9396 27.2079 37.8058 29.3416 35.1736 29.3416C32.5414 29.3416 30.4075 27.2079 30.4074 24.5757L13.6112 24.5754C13.6112 27.2076 11.4773 29.3416 8.84505 29.3416C6.21275 29.3416 4.07886 27.2077 4.07886 24.5754L0.738647 24.5754V0.70105ZM2.42083 2.38324H26.6497V15.5943H2.42083V2.38324ZM28.3716 22.8896H30.7141C31.395 21.0893 33.1348 19.8092 35.1736 19.8092C37.2123 19.8092 38.9521 21.0893 39.633 22.8896H41.3244V14.9721C41.2903 14.9567 41.2451 14.9396 41.1786 14.916C41.1687 14.9125 41.1542 14.9084 41.1373 14.9036C41.1162 14.8977 41.0913 14.8907 41.0665 14.8824C40.9497 14.843 40.7849 14.7849 40.6627 14.7366C40.4029 14.6338 40.1568 14.5477 39.9114 14.4674L39.7656 14.4226L39.6558 14.3871C39.493 14.3347 39.326 14.2809 39.16 14.2207C38.619 14.0246 38.0563 13.771 37.4442 13.3011C36.1926 12.3403 35.8685 11.0702 35.6386 10.1162L35.6274 10.0377C35.3969 9.07983 35.2334 8.43978 34.6966 7.87325L34.6629 7.83961L34.5965 7.76941C34.3253 7.4826 34.1905 7.34002 33.9116 7.13309C33.4129 6.76319 33.0979 6.65123 32.3916 6.40025L32.3079 6.3705L32.2742 6.35928C31.9895 6.32933 31.732 6.29788 31.4844 6.26765C30.7611 6.17932 30.1226 6.10135 29.1381 6.10135C28.8482 6.12461 28.7607 6.15188 28.6671 6.18106C28.5988 6.20235 28.5273 6.22465 28.3716 6.24714V22.8896ZM2.42083 17.3161H26.6497V22.8932H13.3059C12.6259 21.091 10.8852 19.8092 8.84505 19.8092C6.80493 19.8092 5.06419 21.091 4.38423 22.8932H2.42083V17.3161ZM8.84505 21.4914C7.1418 21.4914 5.76104 22.8722 5.76104 24.5754C5.76104 26.2787 7.1418 27.6594 8.84505 27.6594C10.5483 27.6594 11.9291 26.2787 11.9291 24.5754C11.9291 22.8722 10.5483 21.4914 8.84505 21.4914ZM32.0896 24.5754C32.0896 22.8722 33.4703 21.4914 35.1736 21.4914C36.8768 21.4914 38.2576 22.8722 38.2576 24.5754C38.2576 26.2787 36.8768 27.6594 35.1736 27.6594C33.4703 27.6594 32.0896 26.2787 32.0896 24.5754Z" fill="#4D4D4D"/>
</svg>
