<svg width="22" height="22" viewBox="0 0 22 22" fill="none" xmlns="http://www.w3.org/2000/svg">
<g clip-path="url(#clip0)">
<path d="M10.7552 0.940674C4.96565 0.940674 0.255249 5.65108 0.255249 11.4407C0.255249 17.2303 4.96565 21.9407 10.7552 21.9407C16.5448 21.9407 21.2552 17.2303 21.2552 11.4407C21.2552 5.65108 16.5448 0.940674 10.7552 0.940674ZM10.7552 20.6282C5.68917 20.6282 1.56775 16.5068 1.56775 11.4407C1.56775 6.3746 5.68917 2.25318 10.7552 2.25318C15.8213 2.25318 19.9427 6.3746 19.9427 11.4407C19.9427 16.5068 15.8213 20.6282 10.7552 20.6282Z" fill="#403737"/>
<path d="M11.4115 4.87817H10.099V11.7124L14.2287 15.8421L15.1567 14.9142L11.4115 11.1689V4.87817Z" fill="#403737"/>
</g>
<defs>
<clipPath id="clip0">
<rect width="21" height="21" fill="white" transform="translate(0.255249 0.940674)"/>
</clipPath>
</defs>
</svg>
