<svg width="23" height="22" viewBox="0 0 23 22" fill="none" xmlns="http://www.w3.org/2000/svg">
<g clip-path="url(#clip0)">
<path fill-rule="evenodd" clip-rule="evenodd" d="M17.7904 3.67408C15.8608 1.74225 13.2947 0.677891 10.5608 0.676758C4.92749 0.676758 0.342754 5.26136 0.340488 10.8962C0.339733 12.6975 0.810291 14.4559 1.7047 16.0058L0.254761 21.3018L5.67273 19.8805C7.1656 20.6949 8.84629 21.124 10.5567 21.1245H10.561C16.1937 21.1245 20.7789 16.5395 20.7811 10.9044C20.7822 8.17346 19.7201 5.60578 17.7904 3.67408ZM10.5608 19.3985H10.5573C9.0331 19.3979 7.53821 18.9882 6.23379 18.2144L5.92374 18.0303L2.70864 18.8737L3.56679 15.739L3.36475 15.4176C2.5144 14.0651 2.06536 12.5019 2.06612 10.8969C2.06788 6.21331 5.87867 2.40289 10.5642 2.40289C12.8332 2.40365 14.9661 3.28837 16.5698 4.89403C18.1736 6.49969 19.0563 8.63395 19.0556 10.9038C19.0535 15.5877 15.243 19.3985 10.5608 19.3985ZM15.2203 13.0364C14.9651 12.9085 13.7095 12.2909 13.4753 12.2056C13.2414 12.1203 13.071 12.0779 12.9009 12.3335C12.7306 12.589 12.2413 13.1643 12.0922 13.3346C11.9432 13.5051 11.7944 13.5265 11.539 13.3986C11.2835 13.2708 10.4608 13.001 9.48528 12.131C8.72619 11.4539 8.21371 10.6176 8.06467 10.3621C7.91587 10.1063 8.06341 9.98142 8.1767 9.84093C8.45315 9.49765 8.72997 9.13774 8.81507 8.96742C8.90029 8.79697 8.85762 8.6478 8.79367 8.52002C8.72997 8.39225 8.21925 7.13529 8.00651 6.62382C7.79905 6.12607 7.58869 6.19329 7.43184 6.18549C7.28305 6.17806 7.11272 6.17655 6.9424 6.17655C6.7722 6.17655 6.49551 6.24037 6.26136 6.49617C6.02734 6.75184 5.36771 7.36956 5.36771 8.62652C5.36771 9.88348 6.28276 11.0978 6.41041 11.2682C6.53806 11.4387 8.2112 14.018 10.7728 15.1241C11.3821 15.3874 11.8577 15.5444 12.2287 15.6621C12.8405 15.8565 13.397 15.829 13.8371 15.7633C14.3278 15.6899 15.3479 15.1455 15.5609 14.549C15.7736 13.9525 15.7736 13.4412 15.7097 13.3346C15.646 13.2281 15.4756 13.1643 15.2203 13.0364Z" fill="#403737"/>
</g>
<defs>
<clipPath id="clip0">
<rect width="22" height="22" fill="white" transform="translate(0.254761)"/>
</clipPath>
</defs>
</svg>
